# xmcd
#
# Track frame offsets:
#	150
#	13309
#	33852
#	52951
#	73815
#	90428
#	110731
#	116604
#	126431
#	146731
#	170281
#	184333
#	212908
#	226907
#	244111
#
# Disc length: 3557 seconds
#
# Revision: 0
# Processed by: cddbd v1.5.1PL2 Copyright (c) Steve Scherf et al.
# Submitted via: SynApp - FreeCDDB Version: 2.0
#
DISCID=d90de30f
DTITLE=Sarah Brightman - La Lune
DYEAR=1999
DGENRE=A capella
TTITLE0=Sarah Brightman - 1
TTITLE1=Sarah Brightman - USLA Luna - 02 Winter In July
TTITLE2=Sarah Brightman - Scarborough Fair
TTITLE3=Sarah Brightman - Figlio Perduto
TTITLE4=Sarah Brightman - A Whiter Shade Of Pale
TTITLE5=Sarah Brightman - He Doesn't See Me
TTITLE6=Sarah Brightman - serenade
TTITLE7=Sarah Brightman - How Fare This Spot
TTITLE8=Sarah Brightman - Hijo De La Luna
TTITLE9=Sarah Brightman - Here With Me
TTITLE10=Brightman, Sarah - La Luna - 04
TTITLE11=Sarah Brightman - This Love
TTITLE12=Sarah Brightman - Solo Con Te
TTITLE13=Sarah Brightman - Gloomy Sunday
TTITLE14=Sarah Brightman - La Luna
EXTD=
EXTT0=
EXTT1=
EXTT2=
EXTT3=
EXTT4=
EXTT5=
EXTT6=
EXTT7=
EXTT8=
EXTT9=
EXTT10=
EXTT11=
EXTT12=
EXTT13=
EXTT14=
PLAYORDER=
